<mxfile host="app.diagrams.net" agent="Mozilla/5.0 (Windows NT 10.0; Win64; x64) AppleWebKit/537.36 (KHTML, like Gecko) Chrome/132.0.0.0 Safari/537.36" version="26.0.8">
  <diagram name="Página-1" id="_-SUKd0T7lk5-P419IWT">
    <mxGraphModel dx="1793" dy="923" grid="1" gridSize="10" guides="1" tooltips="1" connect="1" arrows="1" fold="1" page="1" pageScale="1" pageWidth="827" pageHeight="1169" math="0" shadow="0">
      <root>
        <mxCell id="0" />
        <mxCell id="1" parent="0" />
        <mxCell id="sM_l2jw1xYte-dTulpN--1" value="INICIO" style="rounded=1;whiteSpace=wrap;html=1;" parent="1" vertex="1">
          <mxGeometry x="354" y="70" width="120" height="60" as="geometry" />
        </mxCell>
        <mxCell id="sM_l2jw1xYte-dTulpN--2" value="INDEX - LOGIN" style="rounded=1;whiteSpace=wrap;html=1;" parent="1" vertex="1">
          <mxGeometry x="354" y="170" width="120" height="60" as="geometry" />
        </mxCell>
        <mxCell id="sM_l2jw1xYte-dTulpN--5" value="ADMIN" style="rhombus;whiteSpace=wrap;html=1;" parent="1" vertex="1">
          <mxGeometry x="374" y="270" width="80" height="80" as="geometry" />
        </mxCell>
        <mxCell id="sM_l2jw1xYte-dTulpN--6" value="" style="endArrow=classic;html=1;rounded=0;entryX=0.5;entryY=0;entryDx=0;entryDy=0;exitX=0.5;exitY=1;exitDx=0;exitDy=0;" parent="1" source="sM_l2jw1xYte-dTulpN--1" target="sM_l2jw1xYte-dTulpN--2" edge="1">
          <mxGeometry width="50" height="50" relative="1" as="geometry">
            <mxPoint x="390" y="410" as="sourcePoint" />
            <mxPoint x="440" y="360" as="targetPoint" />
          </mxGeometry>
        </mxCell>
        <mxCell id="sM_l2jw1xYte-dTulpN--7" value="" style="endArrow=classic;html=1;rounded=0;entryX=0.5;entryY=0;entryDx=0;entryDy=0;exitX=0.5;exitY=1;exitDx=0;exitDy=0;" parent="1" source="sM_l2jw1xYte-dTulpN--2" target="sM_l2jw1xYte-dTulpN--5" edge="1">
          <mxGeometry width="50" height="50" relative="1" as="geometry">
            <mxPoint x="390" y="410" as="sourcePoint" />
            <mxPoint x="440" y="360" as="targetPoint" />
          </mxGeometry>
        </mxCell>
        <mxCell id="sM_l2jw1xYte-dTulpN--8" value="TIENE CARRITO" style="rounded=1;whiteSpace=wrap;html=1;" parent="1" vertex="1">
          <mxGeometry x="40" y="360" width="120" height="60" as="geometry" />
        </mxCell>
        <mxCell id="sM_l2jw1xYte-dTulpN--9" value="" style="endArrow=classic;html=1;rounded=0;exitX=0;exitY=0.5;exitDx=0;exitDy=0;entryX=0.5;entryY=0;entryDx=0;entryDy=0;" parent="1" source="sM_l2jw1xYte-dTulpN--5" target="5RHegPdNfZ6tZ5PyksFu-18" edge="1">
          <mxGeometry width="50" height="50" relative="1" as="geometry">
            <mxPoint x="390" y="410" as="sourcePoint" />
            <mxPoint x="260" y="230" as="targetPoint" />
            <Array as="points">
              <mxPoint x="260" y="310" />
            </Array>
          </mxGeometry>
        </mxCell>
        <mxCell id="sM_l2jw1xYte-dTulpN--11" value="NO" style="text;html=1;align=center;verticalAlign=middle;resizable=0;points=[];autosize=1;strokeColor=none;fillColor=none;" parent="1" vertex="1">
          <mxGeometry x="330" y="280" width="40" height="30" as="geometry" />
        </mxCell>
        <mxCell id="sM_l2jw1xYte-dTulpN--14" value="SI" style="text;html=1;align=center;verticalAlign=middle;resizable=0;points=[];autosize=1;strokeColor=none;fillColor=none;" parent="1" vertex="1">
          <mxGeometry x="469" y="280" width="30" height="30" as="geometry" />
        </mxCell>
        <mxCell id="sM_l2jw1xYte-dTulpN--15" value="VER CATÁLOGO DE PRODUCTOS" style="rounded=1;whiteSpace=wrap;html=1;" parent="1" vertex="1">
          <mxGeometry x="200" y="440" width="120" height="60" as="geometry" />
        </mxCell>
        <mxCell id="sM_l2jw1xYte-dTulpN--16" value="AÑADIR PRODUCTO AL CARRITO" style="rounded=1;whiteSpace=wrap;html=1;" parent="1" vertex="1">
          <mxGeometry x="200" y="660" width="120" height="60" as="geometry" />
        </mxCell>
        <mxCell id="sM_l2jw1xYte-dTulpN--17" value="" style="endArrow=classic;html=1;rounded=0;entryX=0.5;entryY=0;entryDx=0;entryDy=0;exitX=0;exitY=0.5;exitDx=0;exitDy=0;" parent="1" source="sM_l2jw1xYte-dTulpN--5" target="sM_l2jw1xYte-dTulpN--8" edge="1">
          <mxGeometry width="50" height="50" relative="1" as="geometry">
            <mxPoint x="390" y="410" as="sourcePoint" />
            <mxPoint x="440" y="360" as="targetPoint" />
            <Array as="points">
              <mxPoint x="100" y="310" />
            </Array>
          </mxGeometry>
        </mxCell>
        <mxCell id="sM_l2jw1xYte-dTulpN--20" value="VER CARRITO&lt;div&gt;PRECIO TOTAL&lt;/div&gt;" style="rounded=1;whiteSpace=wrap;html=1;" parent="1" vertex="1">
          <mxGeometry x="200" y="756" width="120" height="60" as="geometry" />
        </mxCell>
        <mxCell id="sM_l2jw1xYte-dTulpN--22" value="COMPRAR" style="rounded=1;whiteSpace=wrap;html=1;" parent="1" vertex="1">
          <mxGeometry x="200" y="841" width="120" height="60" as="geometry" />
        </mxCell>
        <mxCell id="sM_l2jw1xYte-dTulpN--23" value="" style="endArrow=classic;html=1;rounded=0;entryX=0.5;entryY=0;entryDx=0;entryDy=0;exitX=0.5;exitY=1;exitDx=0;exitDy=0;" parent="1" source="sM_l2jw1xYte-dTulpN--20" target="sM_l2jw1xYte-dTulpN--22" edge="1">
          <mxGeometry width="50" height="50" relative="1" as="geometry">
            <mxPoint x="470" y="681" as="sourcePoint" />
            <mxPoint x="520" y="631" as="targetPoint" />
          </mxGeometry>
        </mxCell>
        <mxCell id="5RHegPdNfZ6tZ5PyksFu-1" value="FIN" style="rounded=1;whiteSpace=wrap;html=1;" vertex="1" parent="1">
          <mxGeometry x="354" y="841" width="120" height="60" as="geometry" />
        </mxCell>
        <mxCell id="5RHegPdNfZ6tZ5PyksFu-2" value="" style="endArrow=classic;html=1;rounded=0;entryX=0;entryY=0.5;entryDx=0;entryDy=0;exitX=1;exitY=0.5;exitDx=0;exitDy=0;" edge="1" parent="1" source="sM_l2jw1xYte-dTulpN--22" target="5RHegPdNfZ6tZ5PyksFu-1">
          <mxGeometry width="50" height="50" relative="1" as="geometry">
            <mxPoint x="390" y="741" as="sourcePoint" />
            <mxPoint x="440" y="691" as="targetPoint" />
          </mxGeometry>
        </mxCell>
        <mxCell id="5RHegPdNfZ6tZ5PyksFu-3" value="CREAR" style="rounded=1;whiteSpace=wrap;html=1;" vertex="1" parent="1">
          <mxGeometry x="455" y="482" width="120" height="60" as="geometry" />
        </mxCell>
        <mxCell id="5RHegPdNfZ6tZ5PyksFu-4" value="MODIFICAR" style="rounded=1;whiteSpace=wrap;html=1;" vertex="1" parent="1">
          <mxGeometry x="585" y="482" width="120" height="60" as="geometry" />
        </mxCell>
        <mxCell id="5RHegPdNfZ6tZ5PyksFu-5" value="ELIMINAR" style="rounded=1;whiteSpace=wrap;html=1;" vertex="1" parent="1">
          <mxGeometry x="751" y="482" width="120" height="60" as="geometry" />
        </mxCell>
        <mxCell id="5RHegPdNfZ6tZ5PyksFu-6" value="CONSULTAR" style="rounded=1;whiteSpace=wrap;html=1;" vertex="1" parent="1">
          <mxGeometry x="881" y="482" width="120" height="60" as="geometry" />
        </mxCell>
        <mxCell id="5RHegPdNfZ6tZ5PyksFu-9" value="" style="endArrow=classic;html=1;rounded=0;entryX=0.5;entryY=0;entryDx=0;entryDy=0;exitX=1;exitY=0.5;exitDx=0;exitDy=0;" edge="1" parent="1" source="sM_l2jw1xYte-dTulpN--5" target="5RHegPdNfZ6tZ5PyksFu-10">
          <mxGeometry width="50" height="50" relative="1" as="geometry">
            <mxPoint x="390" y="510" as="sourcePoint" />
            <mxPoint x="440" y="460" as="targetPoint" />
            <Array as="points">
              <mxPoint x="730" y="310" />
            </Array>
          </mxGeometry>
        </mxCell>
        <mxCell id="5RHegPdNfZ6tZ5PyksFu-10" value="ACCESO BBDD" style="rounded=1;whiteSpace=wrap;html=1;" vertex="1" parent="1">
          <mxGeometry x="670" y="360" width="120" height="60" as="geometry" />
        </mxCell>
        <mxCell id="5RHegPdNfZ6tZ5PyksFu-15" value="PRODUCTO" style="rounded=1;whiteSpace=wrap;html=1;" vertex="1" parent="1">
          <mxGeometry x="670" y="580" width="120" height="60" as="geometry" />
        </mxCell>
        <mxCell id="5RHegPdNfZ6tZ5PyksFu-18" value="CONSULTAR" style="rounded=1;whiteSpace=wrap;html=1;" vertex="1" parent="1">
          <mxGeometry x="200" y="360" width="120" height="60" as="geometry" />
        </mxCell>
        <mxCell id="5RHegPdNfZ6tZ5PyksFu-19" value="" style="endArrow=classic;html=1;rounded=0;entryX=0.5;entryY=0;entryDx=0;entryDy=0;exitX=0.5;exitY=1;exitDx=0;exitDy=0;" edge="1" parent="1" source="5RHegPdNfZ6tZ5PyksFu-18" target="sM_l2jw1xYte-dTulpN--15">
          <mxGeometry width="50" height="50" relative="1" as="geometry">
            <mxPoint x="390" y="510" as="sourcePoint" />
            <mxPoint x="440" y="460" as="targetPoint" />
          </mxGeometry>
        </mxCell>
        <mxCell id="5RHegPdNfZ6tZ5PyksFu-20" value="STOCK" style="rhombus;whiteSpace=wrap;html=1;" vertex="1" parent="1">
          <mxGeometry x="220" y="540" width="80" height="80" as="geometry" />
        </mxCell>
        <mxCell id="5RHegPdNfZ6tZ5PyksFu-22" value="" style="endArrow=classic;html=1;rounded=0;exitX=1;exitY=0.5;exitDx=0;exitDy=0;entryX=1;entryY=0.5;entryDx=0;entryDy=0;" edge="1" parent="1" source="5RHegPdNfZ6tZ5PyksFu-20" target="sM_l2jw1xYte-dTulpN--15">
          <mxGeometry width="50" height="50" relative="1" as="geometry">
            <mxPoint x="390" y="690" as="sourcePoint" />
            <mxPoint x="440" y="640" as="targetPoint" />
            <Array as="points">
              <mxPoint x="360" y="580" />
              <mxPoint x="360" y="470" />
            </Array>
          </mxGeometry>
        </mxCell>
        <mxCell id="5RHegPdNfZ6tZ5PyksFu-23" value="NO" style="text;html=1;align=center;verticalAlign=middle;resizable=0;points=[];autosize=1;strokeColor=none;fillColor=none;" vertex="1" parent="1">
          <mxGeometry x="300" y="550" width="40" height="30" as="geometry" />
        </mxCell>
        <mxCell id="5RHegPdNfZ6tZ5PyksFu-31" value="" style="endArrow=classic;html=1;rounded=0;entryX=0.5;entryY=0;entryDx=0;entryDy=0;exitX=0.5;exitY=1;exitDx=0;exitDy=0;" edge="1" parent="1" source="5RHegPdNfZ6tZ5PyksFu-10" target="5RHegPdNfZ6tZ5PyksFu-3">
          <mxGeometry width="50" height="50" relative="1" as="geometry">
            <mxPoint x="390" y="690" as="sourcePoint" />
            <mxPoint x="440" y="640" as="targetPoint" />
            <Array as="points">
              <mxPoint x="730" y="440" />
              <mxPoint x="515" y="440" />
            </Array>
          </mxGeometry>
        </mxCell>
        <mxCell id="5RHegPdNfZ6tZ5PyksFu-32" value="" style="endArrow=classic;html=1;rounded=0;entryX=0.5;entryY=0;entryDx=0;entryDy=0;exitX=0.5;exitY=1;exitDx=0;exitDy=0;" edge="1" parent="1" source="5RHegPdNfZ6tZ5PyksFu-10" target="5RHegPdNfZ6tZ5PyksFu-4">
          <mxGeometry width="50" height="50" relative="1" as="geometry">
            <mxPoint x="390" y="690" as="sourcePoint" />
            <mxPoint x="440" y="640" as="targetPoint" />
            <Array as="points">
              <mxPoint x="730" y="440" />
              <mxPoint x="645" y="440" />
            </Array>
          </mxGeometry>
        </mxCell>
        <mxCell id="5RHegPdNfZ6tZ5PyksFu-33" value="" style="endArrow=classic;html=1;rounded=0;entryX=0.5;entryY=0;entryDx=0;entryDy=0;exitX=0.5;exitY=1;exitDx=0;exitDy=0;" edge="1" parent="1" source="5RHegPdNfZ6tZ5PyksFu-10" target="5RHegPdNfZ6tZ5PyksFu-5">
          <mxGeometry width="50" height="50" relative="1" as="geometry">
            <mxPoint x="390" y="690" as="sourcePoint" />
            <mxPoint x="440" y="640" as="targetPoint" />
            <Array as="points">
              <mxPoint x="730" y="440" />
              <mxPoint x="810" y="440" />
            </Array>
          </mxGeometry>
        </mxCell>
        <mxCell id="5RHegPdNfZ6tZ5PyksFu-34" value="" style="endArrow=classic;html=1;rounded=0;entryX=0.5;entryY=0;entryDx=0;entryDy=0;exitX=0.5;exitY=1;exitDx=0;exitDy=0;" edge="1" parent="1" source="5RHegPdNfZ6tZ5PyksFu-10" target="5RHegPdNfZ6tZ5PyksFu-6">
          <mxGeometry width="50" height="50" relative="1" as="geometry">
            <mxPoint x="390" y="690" as="sourcePoint" />
            <mxPoint x="440" y="640" as="targetPoint" />
            <Array as="points">
              <mxPoint x="730" y="440" />
              <mxPoint x="940" y="440" />
            </Array>
          </mxGeometry>
        </mxCell>
        <mxCell id="5RHegPdNfZ6tZ5PyksFu-35" value="" style="endArrow=classic;html=1;rounded=0;entryX=0;entryY=0.5;entryDx=0;entryDy=0;exitX=0.5;exitY=1;exitDx=0;exitDy=0;" edge="1" parent="1" source="5RHegPdNfZ6tZ5PyksFu-3" target="5RHegPdNfZ6tZ5PyksFu-15">
          <mxGeometry width="50" height="50" relative="1" as="geometry">
            <mxPoint x="390" y="690" as="sourcePoint" />
            <mxPoint x="440" y="640" as="targetPoint" />
            <Array as="points">
              <mxPoint x="515" y="610" />
            </Array>
          </mxGeometry>
        </mxCell>
        <mxCell id="5RHegPdNfZ6tZ5PyksFu-36" value="" style="endArrow=classic;html=1;rounded=0;entryX=1;entryY=0.5;entryDx=0;entryDy=0;exitX=0.5;exitY=1;exitDx=0;exitDy=0;" edge="1" parent="1" source="5RHegPdNfZ6tZ5PyksFu-6" target="5RHegPdNfZ6tZ5PyksFu-15">
          <mxGeometry width="50" height="50" relative="1" as="geometry">
            <mxPoint x="390" y="690" as="sourcePoint" />
            <mxPoint x="440" y="640" as="targetPoint" />
            <Array as="points">
              <mxPoint x="940" y="610" />
            </Array>
          </mxGeometry>
        </mxCell>
        <mxCell id="5RHegPdNfZ6tZ5PyksFu-40" value="" style="endArrow=classic;html=1;rounded=0;entryX=1;entryY=0.5;entryDx=0;entryDy=0;exitX=0.5;exitY=1;exitDx=0;exitDy=0;" edge="1" parent="1" source="5RHegPdNfZ6tZ5PyksFu-15" target="5RHegPdNfZ6tZ5PyksFu-1">
          <mxGeometry width="50" height="50" relative="1" as="geometry">
            <mxPoint x="390" y="690" as="sourcePoint" />
            <mxPoint x="440" y="640" as="targetPoint" />
            <Array as="points">
              <mxPoint x="730" y="870" />
            </Array>
          </mxGeometry>
        </mxCell>
        <mxCell id="5RHegPdNfZ6tZ5PyksFu-41" value="" style="endArrow=classic;html=1;rounded=0;entryX=0.5;entryY=0;entryDx=0;entryDy=0;exitX=0.5;exitY=1;exitDx=0;exitDy=0;" edge="1" parent="1" source="5RHegPdNfZ6tZ5PyksFu-20" target="sM_l2jw1xYte-dTulpN--16">
          <mxGeometry width="50" height="50" relative="1" as="geometry">
            <mxPoint x="250" y="570" as="sourcePoint" />
            <mxPoint x="300" y="520" as="targetPoint" />
            <Array as="points" />
          </mxGeometry>
        </mxCell>
        <mxCell id="5RHegPdNfZ6tZ5PyksFu-42" value="" style="endArrow=classic;html=1;rounded=0;entryX=0.5;entryY=0;entryDx=0;entryDy=0;exitX=0.5;exitY=1;exitDx=0;exitDy=0;" edge="1" parent="1" source="sM_l2jw1xYte-dTulpN--15" target="5RHegPdNfZ6tZ5PyksFu-20">
          <mxGeometry width="50" height="50" relative="1" as="geometry">
            <mxPoint x="290" y="680" as="sourcePoint" />
            <mxPoint x="340" y="630" as="targetPoint" />
          </mxGeometry>
        </mxCell>
        <mxCell id="5RHegPdNfZ6tZ5PyksFu-43" value="" style="endArrow=classic;html=1;rounded=0;entryX=0.5;entryY=0;entryDx=0;entryDy=0;exitX=0.5;exitY=1;exitDx=0;exitDy=0;" edge="1" parent="1" source="sM_l2jw1xYte-dTulpN--16" target="sM_l2jw1xYte-dTulpN--20">
          <mxGeometry width="50" height="50" relative="1" as="geometry">
            <mxPoint x="290" y="680" as="sourcePoint" />
            <mxPoint x="340" y="630" as="targetPoint" />
          </mxGeometry>
        </mxCell>
        <mxCell id="5RHegPdNfZ6tZ5PyksFu-44" value="SI" style="text;html=1;align=center;verticalAlign=middle;resizable=0;points=[];autosize=1;strokeColor=none;fillColor=none;" vertex="1" parent="1">
          <mxGeometry x="260" y="620" width="30" height="30" as="geometry" />
        </mxCell>
        <mxCell id="5RHegPdNfZ6tZ5PyksFu-45" value="" style="endArrow=none;html=1;rounded=0;entryX=0.5;entryY=1;entryDx=0;entryDy=0;" edge="1" parent="1" target="5RHegPdNfZ6tZ5PyksFu-4">
          <mxGeometry width="50" height="50" relative="1" as="geometry">
            <mxPoint x="645" y="610" as="sourcePoint" />
            <mxPoint x="400" y="480" as="targetPoint" />
          </mxGeometry>
        </mxCell>
        <mxCell id="5RHegPdNfZ6tZ5PyksFu-46" value="" style="endArrow=none;html=1;rounded=0;entryX=0.5;entryY=1;entryDx=0;entryDy=0;" edge="1" parent="1" target="5RHegPdNfZ6tZ5PyksFu-5">
          <mxGeometry width="50" height="50" relative="1" as="geometry">
            <mxPoint x="811" y="610" as="sourcePoint" />
            <mxPoint x="400" y="480" as="targetPoint" />
          </mxGeometry>
        </mxCell>
        <mxCell id="5RHegPdNfZ6tZ5PyksFu-47" value="JSANCHEZ8979 - TIENDA CERVEZAS &quot;AQUÍ NO VENDEMOS CRUZCAMPO&quot;" style="text;html=1;align=center;verticalAlign=middle;resizable=0;points=[];autosize=1;strokeColor=none;fillColor=none;" vertex="1" parent="1">
          <mxGeometry x="504" y="130" width="450" height="30" as="geometry" />
        </mxCell>
      </root>
    </mxGraphModel>
  </diagram>
</mxfile>
